<?xml version="1.0" encoding="UTF-8"?>
<svg width="40px" height="40px" viewBox="0 0 40 40" version="1.1" xmlns="http://www.w3.org/2000/svg" xmlns:xlink="http://www.w3.org/1999/xlink">
    <!-- Generator: Sketch 40.2 (33826) - http://www.bohemiancoding.com/sketch -->
    <title>LinkedIn_40x40</title>
    <desc>Created with Sketch.</desc>
    <defs>
        <polygon id="path-1" points="0.06 40 40 40 40 0.04 0.06 0.04"></polygon>
    </defs>
    <g id="Page-1" stroke="none" stroke-width="1" fill="none" fill-rule="evenodd">
        <g id="footer_mobile_default_v1" transform="translate(-190.000000, -51.000000)">
            <g id="Social-Media-Icons-Copy">
                <g transform="translate(90.000000, 50.000000)">
                    <g id="LinkedIn_40x40" transform="translate(100.000000, 1.000000)">
                        <g id="Group-3">
                            <mask id="mask-2" fill="white">
                                <use xlink:href="#path-1"></use>
                            </mask>
                            <g id="Clip-2"></g>
                            <path d="M40,20 C40,31.046 31.046,40 20,40 C8.954,40 0,31.046 0,20 C0,8.954 8.954,0 20,0 C31.046,0 40,8.954 40,20" id="Fill-1" fill="#B8B8B4" mask="url(#mask-2)"></path>
                        </g>
                        <polygon id="Fill-4" fill="#222321" points="11.71 28.124 15.362 28.124 15.362 17.156 11.71 17.156"></polygon>
                        <path d="M27.349,18.158 C26.582,17.32 25.567,16.902 24.305,16.902 C23.841,16.902 23.419,16.959 23.038,17.073 C22.658,17.188 22.337,17.348 22.075,17.554 C21.813,17.761 21.605,17.953 21.45,18.13 C21.303,18.298 21.159,18.494 21.019,18.715 L21.019,17.156 L17.377,17.156 L17.388,17.687 C17.396,18.041 17.399,19.133 17.399,20.963 C17.399,22.793 17.392,25.18 17.377,28.124 L21.019,28.124 L21.019,22.003 C21.019,21.627 21.059,21.329 21.14,21.107 C21.295,20.73 21.529,20.415 21.843,20.161 C22.157,19.906 22.545,19.779 23.01,19.779 C23.645,19.779 24.112,19.998 24.411,20.437 C24.709,20.876 24.859,21.483 24.859,22.258 L24.859,28.124 L28.5,28.124 L28.5,21.837 C28.5,20.222 28.117,18.995 27.349,18.158" id="Fill-5" fill="#222321"></path>
                        <path d="M13.559,11.876 C12.946,11.876 12.45,12.056 12.07,12.413 C11.69,12.771 11.5,13.223 11.5,13.769 C11.5,14.307 11.684,14.758 12.053,15.119 C12.422,15.481 12.91,15.661 13.514,15.661 L13.536,15.661 C14.157,15.661 14.656,15.481 15.036,15.119 C15.416,14.758 15.603,14.307 15.595,13.769 C15.588,13.223 15.4,12.771 15.031,12.413 C14.662,12.056 14.171,11.876 13.559,11.876" id="Fill-6" fill="#222321"></path>
                    </g>
                </g>
            </g>
        </g>
    </g>
</svg>