<?xml version="1.0" encoding="UTF-8"?>
<svg width="40px" height="40px" viewBox="0 0 40 40" version="1.1" xmlns="http://www.w3.org/2000/svg" xmlns:xlink="http://www.w3.org/1999/xlink">
    <!-- Generator: Sketch 40.2 (33826) - http://www.bohemiancoding.com/sketch -->
    <title>Twitter_40x40</title>
    <desc>Created with Sketch.</desc>
    <defs>
        <polygon id="path-1" points="0.06 40 40 40 40 0.04 0.06 0.04"></polygon>
    </defs>
    <g id="Page-1" stroke="none" stroke-width="1" fill="none" fill-rule="evenodd">
        <g id="footer_mobile_default_v1" transform="translate(-140.000000, -51.000000)">
            <g id="Social-Media-Icons-Copy">
                <g transform="translate(90.000000, 50.000000)">
                    <g id="Twitter_40x40" transform="translate(50.000000, 1.000000)">
                        <g id="Group-3">
                            <mask id="mask-2" fill="white">
                                <use xlink:href="#path-1"></use>
                            </mask>
                            <g id="Clip-2"></g>
                            <path d="M40,20 C40,31.046 31.046,40 20,40 C8.954,40 0,31.046 0,20 C0,8.954 8.954,0 20,0 C31.046,0 40,8.954 40,20" id="Fill-1" fill="#B8B8B4" mask="url(#mask-2)"></path>
                        </g>
                        <path d="M29.5,14.117 C28.752,14.438 28.005,14.639 27.258,14.72 C28.101,14.214 28.672,13.498 28.97,12.574 C28.198,13.033 27.374,13.345 26.498,13.514 C25.726,12.695 24.778,12.285 23.653,12.285 C22.576,12.285 21.658,12.665 20.898,13.424 C20.138,14.183 19.759,15.102 19.759,16.178 C19.759,16.468 19.791,16.765 19.855,17.071 C18.263,16.99 16.771,16.59 15.376,15.871 C13.982,15.152 12.798,14.194 11.826,12.996 C11.472,13.598 11.295,14.253 11.295,14.961 C11.295,15.628 11.452,16.247 11.766,16.818 C12.079,17.388 12.501,17.85 13.032,18.204 C12.404,18.18 11.818,18.015 11.271,17.709 L11.271,17.758 C11.271,18.698 11.567,19.523 12.157,20.235 C12.748,20.947 13.494,21.395 14.394,21.579 C14.056,21.668 13.714,21.712 13.369,21.712 C13.144,21.712 12.899,21.692 12.633,21.652 C12.883,22.432 13.341,23.073 14.008,23.575 C14.675,24.077 15.43,24.336 16.274,24.352 C14.86,25.461 13.248,26.016 11.441,26.016 C11.094,26.016 10.781,26 10.5,25.968 C12.308,27.133 14.302,27.715 16.479,27.715 C17.862,27.715 19.16,27.497 20.373,27.059 C21.587,26.621 22.624,26.034 23.484,25.299 C24.344,24.563 25.085,23.717 25.708,22.76 C26.331,21.804 26.795,20.806 27.101,19.765 C27.406,18.724 27.559,17.681 27.559,16.636 C27.559,16.412 27.554,16.243 27.546,16.13 C28.31,15.576 28.961,14.905 29.5,14.117" id="Fill-4" fill="#222321"></path>
                    </g>
                </g>
            </g>
        </g>
    </g>
</svg>